name rise49.5252peak65.1548fall88.8305.mot
datacolumns 19
datarows 14
range 0.99498900000000 1.01666100000000
endheader
time	ground_force1_vx	ground_force1_vy	ground_force1_vz	ground_force1_px	ground_force1_py	ground_force1_pz	ground_force2_vx	ground_force2_vy	ground_force2_vz	ground_force2_px	ground_force2_py	ground_force2_pz	ground_torque1_x	ground_torque1_y	ground_torque1_z	ground_torque2_x	ground_torque2_y	ground_torque2_z	
0.99498900000000	-9.77432000000000	41.31355100000000	-11.41308000000000	0.31783700000000	0.00000000000000	0.12394200000000	-38.97150300000000	791.22834799999998	-62.95240700000000	0.17304200000000	0.00000000000000	-0.07499200000000	0.00000000000000	-6.75132700000000	0.00000000000000	0.00000000000000	-26.54033100000000	0.00000000000000	
0.99665500000000	-10.80261700000000	48.56569600000000	-12.83033900000000	0.32288200000000	0.00000000000000	0.12506800000000	-39.16602600000000	788.54589299999998	-62.63708500000000	0.17234000000000	0.00000000000000	-0.07490400000000	0.00000000000000	-7.68411900000000	0.00000000000000	0.00000000000000	-26.35298400000000	0.00000000000000	
0.99833900000000	-11.66901000000000	55.94502600000000	-14.11648400000000	0.32747800000000	0.00000000000000	0.12607800000000	-39.36802900000000	785.73387700000001	-62.29609300000000	0.17164100000000	0.00000000000000	-0.07481200000000	0.00000000000000	-8.55746700000000	0.00000000000000	0.00000000000000	-26.16140100000000	0.00000000000000	
0.99999400000000	-12.34732000000000	63.35867900000000	-15.24114800000000	0.33170200000000	0.00000000000000	0.12699200000000	-39.57803300000000	782.79225099999996	-61.92931500000000	0.17094700000000	0.00000000000000	-0.07471500000000	0.00000000000000	-9.35166700000000	0.00000000000000	0.00000000000000	-25.96575600000000	0.00000000000000	
1.00166200000000	-12.82157200000000	70.73523100000000	-16.18414000000000	0.33561600000000	0.00000000000000	0.12782400000000	-39.79650700000000	779.72094700000002	-61.53666200000000	0.17025700000000	0.00000000000000	-0.07461300000000	0.00000000000000	-10.05277700000000	0.00000000000000	0.00000000000000	-25.76622400000000	0.00000000000000	
1.00333100000000	-13.08591800000000	78.02701999999999	-16.93558500000000	0.33926700000000	0.00000000000000	0.12858700000000	-40.02386100000000	776.51987299999996	-61.11808100000000	0.16957200000000	0.00000000000000	-0.07450700000000	0.00000000000000	-10.65286200000000	0.00000000000000	0.00000000000000	-25.56297500000000	0.00000000000000	
1.00499500000000	-13.14373700000000	85.21013300000000	-17.49518800000000	0.34269400000000	0.00000000000000	0.12929100000000	-40.26044700000000	773.18890999999996	-60.67355000000000	0.16889400000000	0.00000000000000	-0.07439600000000	0.00000000000000	-11.14970500000000	0.00000000000000	0.00000000000000	-25.35617900000000	0.00000000000000	
1.00666200000000	-13.00613800000000	92.28242700000000	-17.87084200000000	0.34592900000000	0.00000000000000	0.12994400000000	-40.50655200000000	769.72790699999996	-60.20308100000000	0.16822200000000	0.00000000000000	-0.07428000000000	0.00000000000000	-11.54609800000000	0.00000000000000	0.00000000000000	-25.14600200000000	0.00000000000000	
1.00833700000000	-12.69008300000000	99.26010599999999	-18.07681300000000	0.34899800000000	0.00000000000000	0.13055200000000	-40.76239700000000	766.13667599999997	-59.70672400000000	0.16755900000000	0.00000000000000	-0.07416000000000	0.00000000000000	-11.84884800000000	0.00000000000000	0.00000000000000	-24.93260800000000	0.00000000000000	
1.00999600000000	-12.21636700000000	106.17338300000000	-18.13170500000000	0.35192100000000	0.00000000000000	0.13112100000000	-41.02813000000000	762.41499099999999	-59.18456300000000	0.16690300000000	0.00000000000000	-0.07403400000000	0.00000000000000	-12.06761500000000	0.00000000000000	0.00000000000000	-24.71615400000000	0.00000000000000	
1.01166200000000	-11.60762400000000	113.06174400000000	-18.05643600000000	0.35471700000000	0.00000000000000	0.13165600000000	-41.30382800000000	758.56258700000001	-58.63672100000000	0.16625800000000	0.00000000000000	-0.07390400000000	0.00000000000000	-12.21372200000000	0.00000000000000	0.00000000000000	-24.49679300000000	0.00000000000000	
1.01334600000000	-10.88653500000000	119.96926800000000	-17.87237400000000	0.35740000000000	0.00000000000000	0.13216100000000	-41.58948900000000	754.57915400000002	-58.06335700000000	0.16562200000000	0.00000000000000	-0.07376800000000	0.00000000000000	-12.29903600000000	0.00000000000000	0.00000000000000	-24.27467300000000	0.00000000000000	
1.01498900000000	-10.07433700000000	126.94037500000000	-17.59975200000000	0.35998100000000	0.00000000000000	0.13263800000000	-41.88503300000000	750.46433999999999	-57.46467300000000	0.16499700000000	0.00000000000000	-0.07362700000000	0.00000000000000	-12.33498700000000	0.00000000000000	0.00000000000000	-24.04993300000000	0.00000000000000	
1.01666100000000	-9.18970100000000	134.01625799999999	-17.25645500000000	0.36247100000000	0.00000000000000	0.13309100000000	-42.19029800000000	746.21774800000003	-56.84090700000000	0.16438500000000	0.00000000000000	-0.07348100000000	0.00000000000000	-12.33179400000000	0.00000000000000	0.00000000000000	-23.82270600000000	0.00000000000000	
